<svg style="position: absolute; width: 0; height: 0; overflow: hidden;" version="1.1" xmlns="http://www.w3.org/2000/svg" xmlns:xlink="http://www.w3.org/1999/xlink">
<defs>
<symbol id="icon-heart-full" viewBox="0 0 32 32">
<title>heart-full</title>
<path d="M16.042 8.345c0 0-2-4.262-6.5-4.262-4.917 0-7.5 4.167-7.5 8.333 0 6.917 14 15.5 14 15.5s13.916-8.5 13.916-15.5c0-4.25-2.666-8.333-7.416-8.333s-6.5 4.262-6.5 4.262z"></path>
</symbol>
<symbol id="icon-presentation" viewBox="0 0 31 32">
<title>presentation</title>
<path d="M0.5 3c-0.276 0-0.5 0.224-0.5 0.5v17c0 0.827 0.673 1.5 1.5 1.5h28c0.827 0 1.5-0.673 1.5-1.5v-17c0-0.276-0.224-0.5-0.5-0.5s-0.5 0.224-0.5 0.5v17c0 0.276-0.224 0.5-0.5 0.5h-28c-0.276 0-0.5-0.224-0.5-0.5v-17c0-0.276-0.224-0.5-0.5-0.5zM32.5 0h-34c-0.276 0-0.5 0.224-0.5 0.5s0.224 0.5 0.5 0.5h34c0.276 0 0.5-0.224 0.5-0.5s-0.224-0.5-0.5-0.5zM11.854 8.146c-0.183-0.183-0.475-0.196-0.674-0.031l-6 5c-0.212 0.177-0.241 0.492-0.064 0.705 0.177 0.212 0.491 0.241 0.705 0.064l5.649-4.708 5.677 5.677c0.097 0.098 0.225 0.147 0.353 0.147s0.256-0.049 0.354-0.146l7.146-7.147v3.793c0 0.276 0.224 0.5 0.5 0.5s0.5-0.224 0.5-0.5v-5c0-0.065-0.013-0.13-0.038-0.191-0.051-0.122-0.148-0.22-0.271-0.271-0.061-0.025-0.126-0.038-0.191-0.038h-5c-0.276 0-0.5 0.224-0.5 0.5s0.224 0.5 0.5 0.5h3.793l-6.793 6.793-5.646-5.647zM8.057 31.732c0.128 0.245 0.43 0.339 0.675 0.211l6.768-3.545 6.768 3.545c0.074 0.039 0.153 0.057 0.232 0.057 0.18 0 0.354-0.098 0.443-0.268 0.128-0.245 0.034-0.547-0.211-0.675l-6.893-3.61c0.098-0.091 0.161-0.219 0.161-0.364v-2.583c0-0.276-0.224-0.5-0.5-0.5s-0.5 0.224-0.5 0.5v2.583c0 0.144 0.063 0.272 0.161 0.363l-6.893 3.61c-0.245 0.129-0.339 0.431-0.211 0.676z"></path>
</symbol>
<symbol id="icon-expand" viewBox="0 0 32 32">
<title>expand</title>
<path d="M32 30.5v-29c0-0.827-0.673-1.5-1.5-1.5h-29c-0.827 0-1.5 0.673-1.5 1.5v9c0 0.276 0.224 0.5 0.5 0.5s0.5-0.224 0.5-0.5v-9c0-0.276 0.225-0.5 0.5-0.5h29c0.275 0 0.5 0.224 0.5 0.5v29c0 0.276-0.225 0.5-0.5 0.5h-9c-0.276 0-0.5 0.224-0.5 0.5s0.224 0.5 0.5 0.5h9c0.827 0 1.5-0.673 1.5-1.5zM1.5 13c-0.827 0-1.5 0.673-1.5 1.5v16c0 0.827 0.673 1.5 1.5 1.5h16c0.827 0 1.5-0.673 1.5-1.5v-16.793l7-7v6.793c0 0.276 0.224 0.5 0.5 0.5s0.5-0.224 0.5-0.5v-8c0-0.276-0.224-0.5-0.5-0.5h-8c-0.276 0-0.5 0.224-0.5 0.5s0.224 0.5 0.5 0.5h6.792l-7 7h-16.792zM18 30.5c0 0.276-0.225 0.5-0.5 0.5h-16c-0.275 0-0.5-0.224-0.5-0.5v-16c0-0.276 0.225-0.5 0.5-0.5h16.5v16.5z"></path>
</symbol>
<symbol id="icon-lock" viewBox="0 0 28 32">
<title>lock</title>
<path d="M14 0c-5.514 0-10 4.486-10 10v3h-1.5c-1.378 0-2.5 1.122-2.5 2.5v14c0 1.378 1.122 2.5 2.5 2.5h23c1.378 0 2.5-1.122 2.5-2.5v-14c0-1.378-1.122-2.5-2.5-2.5h-1.5v-3c0-5.514-4.486-10-10-10zM5 10c0-4.962 4.038-9 9-9s9 4.038 9 9v3h-3v-3c0-3.309-2.691-6-6-6s-6 2.691-6 6v3h-3v-3zM19 13h-10v-3c0-2.757 2.243-5 5-5s5 2.243 5 5v3zM12.293 21l-5 5h-4.586l5-5h4.586zM18.293 21l-5 5h-4.586l5-5h4.586zM24.293 21l-5 5h-4.586l5-5h4.586zM27 21v5h-6.293l5-5h1.293zM1.293 26h-0.293v-5h5.293l-5 5zM25.5 31h-23c-0.827 0-1.5-0.673-1.5-1.5v-2.5h26v2.5c0 0.827-0.673 1.5-1.5 1.5zM27 15.5v4.5h-26v-4.5c0-0.827 0.673-1.5 1.5-1.5h23c0.827 0 1.5 0.673 1.5 1.5z"></path>
</symbol>
<symbol id="icon-trophy" viewBox="0 0 34 32">
<title>trophy</title>
<path d="M25.5 1c0.276 0 0.5-0.224 0.5-0.5s-0.224-0.5-0.5-0.5h-17c-0.276 0-0.5 0.224-0.5 0.5s0.224 0.5 0.5 0.5h17zM25.5 2h-19c-3.283 0-4.813 1.166-5.519 2.144-0.864 1.2-1.026 2.803-0.456 4.514 0.882 2.646 3.846 5.825 5.668 7.237 0.092 0.071 0.2 0.105 0.307 0.105 0.149 0 0.297-0.066 0.396-0.194 0.169-0.218 0.129-0.532-0.089-0.702-1.674-1.296-4.525-4.342-5.332-6.763-0.467-1.397-0.354-2.68 0.318-3.612 0.815-1.131 2.442-1.729 4.707-1.729h1.5v9.5c0 6.726 6.673 10.601 8.036 11.322-0.021 0.056-0.036 0.115-0.036 0.178v2.5c0 0.276 0.224 0.5 0.5 0.5s0.5-0.224 0.5-0.5v-2.5c0-0.058-0.015-0.112-0.033-0.164 1.514-0.712 9.033-4.586 9.033-11.336v-9.5h1.5c2.265 0 3.892 0.598 4.707 1.729 0.672 0.932 0.785 2.215 0.318 3.613-0.63 1.891-3.769 5.553-5.332 6.763-0.218 0.169-0.258 0.483-0.089 0.702 0.099 0.127 0.247 0.193 0.396 0.193 0.107 0 0.215-0.034 0.307-0.104 1.732-1.342 4.961-5.119 5.668-7.237 0.57-1.711 0.408-3.314-0.456-4.514-0.706-0.979-2.236-2.145-5.519-2.145h-2zM25 12.5c0 6.093-7.152 9.804-8.486 10.443-1.228-0.665-7.514-4.367-7.514-10.443v-9.5h16v9.5zM11 28c-1.141 0-2 0.86-2 2v1.5c0 0.276 0.224 0.5 0.5 0.5h14c0.276 0 0.5-0.224 0.5-0.5v-1.425c0-1.163-0.879-2.075-2-2.075h-11zM23 30.075v0.925h-13v-1c0-0.589 0.411-1 1-1h11c0.57 0 1 0.462 1 1.075z"></path>
</symbol>
<symbol id="icon-key" viewBox="0 0 32 32">
<title>key</title>
<path d="M14.683 14.698c0.117 0 0.235-0.041 0.33-0.124l11.317-9.922-0.66-0.752-11.317 9.921c-0.208 0.182-0.229 0.498-0.046 0.706 0.099 0.113 0.237 0.171 0.376 0.171zM10.188 32c6.142 0 9.812-4.83 9.812-9.5 0-1.346-0.322-2.829-0.798-3.792l4.522-2.261c0.169-0.085 0.276-0.258 0.276-0.447v-4h3c0.011 0 0.102-0.006 0.113-0.006 0.666-0.045 0.865-0.257 0.887-0.994v-4h3c0.129 0 0.218 0.014 0.278 0.023 0.121 0.019 0.347 0.054 0.543-0.122 0.202-0.18 0.193-0.408 0.185-0.609-0.002-0.072-0.006-0.167-0.006-0.292v-4.531c0-0.81-0.659-1.469-1.469-1.469h-3.875c-0.354 0-0.698 0.129-0.969 0.364l-13.187 11.56c-0.649-0.13-1.63-0.299-2.313-0.299-5.617 0-10.187 4.57-10.187 10.187s4.57 10.188 10.188 10.188zM10.188 12.625c0.501 0 1.359 0.12 2.354 0.328 0.155 0.034 0.314-0.010 0.432-0.113l13.371-11.722c0.087-0.076 0.198-0.118 0.311-0.118h3.875c0.259 0 0.469 0.21 0.469 0.469v4.531h-3.5c-0.276 0-0.5 0.224-0.5 0.5v4.5h-3.5c-0.276 0-0.5 0.224-0.5 0.5v4.191l-4.724 2.362c-0.131 0.065-0.227 0.186-0.262 0.328s-0.006 0.293 0.080 0.412c0.44 0.607 0.906 2.114 0.906 3.707 0 4.178-3.296 8.5-8.812 8.5-5.066 0-9.188-4.122-9.188-9.188s4.122-9.187 9.188-9.187zM8.5 27c1.93 0 3.5-1.57 3.5-3.5s-1.57-3.5-3.5-3.5-3.5 1.57-3.5 3.5 1.57 3.5 3.5 3.5zM8.5 21c1.378 0 2.5 1.122 2.5 2.5s-1.122 2.5-2.5 2.5-2.5-1.122-2.5-2.5 1.122-2.5 2.5-2.5z"></path>
</symbol>
<symbol id="icon-profile-male" viewBox="0 0 36 32">
<title>profile-male</title>
<path d="M0.5 31.983c0.268 0.067 0.542-0.088 0.612-0.354 1.030-3.843 5.216-4.839 7.718-5.435 0.627-0.149 1.122-0.267 1.444-0.406 2.85-1.237 3.779-3.227 4.057-4.679 0.034-0.175-0.029-0.355-0.165-0.473-1.484-1.281-2.736-3.204-3.526-5.416-0.022-0.063-0.057-0.121-0.103-0.171-1.045-1.136-1.645-2.337-1.645-3.294 0-0.559 0.211-0.934 0.686-1.217 0.145-0.087 0.236-0.24 0.243-0.408 0.221-5.094 3.849-9.104 8.299-9.13 0.005 0 0.102 0.007 0.107 0.007 4.472 0.062 8.077 4.158 8.206 9.324 0.004 0.143 0.068 0.277 0.178 0.369 0.313 0.265 0.459 0.601 0.459 1.057 0 0.801-0.427 1.786-1.201 2.772-0.037 0.047-0.065 0.101-0.084 0.158-0.8 2.536-2.236 4.775-3.938 6.145-0.144 0.116-0.212 0.302-0.178 0.483 0.278 1.451 1.207 3.44 4.057 4.679 0.337 0.146 0.86 0.26 1.523 0.403 2.477 0.536 6.622 1.435 7.639 5.232 0.060 0.223 0.262 0.37 0.482 0.37 0.043 0 0.086-0.006 0.13-0.017 0.267-0.072 0.425-0.346 0.354-0.613-1.175-4.387-5.871-5.404-8.393-5.95-0.585-0.127-1.090-0.236-1.336-0.344-1.86-0.808-3.006-2.039-3.411-3.665 1.727-1.483 3.172-3.771 3.998-6.337 0.877-1.14 1.359-2.314 1.359-3.317 0-0.669-0.216-1.227-0.644-1.663-0.238-5.604-4.237-10.017-9.2-10.088l-0.149-0.002c-4.873 0.026-8.889 4.323-9.24 9.83-0.626 0.46-0.944 1.105-0.944 1.924 0 1.183 0.669 2.598 1.84 3.896 0.809 2.223 2.063 4.176 3.556 5.543-0.403 1.632-1.55 2.867-3.414 3.676-0.241 0.105-0.721 0.22-1.277 0.352-2.541 0.604-7.269 1.729-8.453 6.147-0.071 0.267 0.087 0.54 0.354 0.612z"></path>
</symbol>
<symbol id="icon-map-pin" viewBox="0 0 24 32">
<title>map-pin</title>
<path d="M12 0c-6.617 0-12 5.394-12 12.022 0 9.927 11.201 19.459 11.678 19.86 0.093 0.079 0.208 0.118 0.322 0.118s0.226-0.038 0.318-0.114c0.477-0.394 11.682-9.762 11.682-19.864 0-6.628-5.383-12.022-12-12.022zM12.002 30.838c-1.841-1.645-11.002-10.259-11.002-18.816 0-6.078 4.935-11.022 11-11.022s11 4.944 11 11.022c0 8.702-9.152 17.193-10.998 18.816zM12 6c-3.309 0-6 2.691-6 6s2.691 6 6 6 6-2.691 6-6-2.691-6-6-6zM12 17c-2.757 0-5-2.243-5-5s2.243-5 5-5 5 2.243 5 5-2.243 5-5 5z"></path>
</symbol>
<symbol id="icon-global" viewBox="0 0 32 32">
<title>global</title>
<path d="M0.034 16.668c0.354 8.511 7.369 15.332 15.966 15.332s15.612-6.821 15.966-15.332c0.019-0.053 0.034-0.108 0.034-0.168 0-0.036-0.013-0.067-0.020-0.1 0.003-0.134 0.020-0.265 0.020-0.4 0-8.822-7.178-16-16-16s-16 7.178-16 16c0 0.135 0.017 0.266 0.020 0.4-0.007 0.033-0.020 0.064-0.020 0.1 0 0.060 0.015 0.115 0.034 0.168zM24.921 22.742c-1.319-0.552-2.735-0.979-4.215-1.271 0.158-1.453 0.251-2.962 0.28-4.47h4.98c-0.091 2.054-0.456 3.993-1.045 5.741zM26.965 17h3.984c-0.186 2.806-1.138 5.403-2.663 7.579-0.759-0.533-1.577-1.019-2.457-1.44 0.645-1.869 1.042-3.943 1.136-6.139zM12.389 22.286c1.178-0.184 2.387-0.286 3.611-0.286s2.433 0.102 3.61 0.286c-0.694 5.335-2.21 8.714-3.61 8.714s-2.916-3.379-3.611-8.714zM13.908 30.664c-2.751-0.882-5.078-3.471-6.482-6.984 1.246-0.525 2.586-0.935 3.99-1.217 0.459 3.496 1.298 6.542 2.492 8.201zM12.274 10.709c1.217 0.188 2.465 0.291 3.726 0.291s2.509-0.103 3.726-0.291c0.172 1.62 0.274 3.388 0.274 5.291h-8c0-1.903 0.102-3.671 0.274-5.291zM19.985 17c-0.028 1.525-0.118 2.961-0.26 4.291-1.216-0.188-2.463-0.291-3.725-0.291s-2.509 0.103-3.726 0.291c-0.173-1.626-0.237-3.057-0.26-4.291h7.971zM20.585 22.463c1.404 0.282 2.743 0.692 3.99 1.217-1.404 3.513-3.731 6.102-6.482 6.984 1.193-1.659 2.032-4.705 2.492-8.201zM21 16c0-1.836-0.102-3.696-0.294-5.47 1.48-0.292 2.896-0.72 4.215-1.271 0.684 2.029 1.079 4.315 1.079 6.741h-5zM20.585 9.537c-0.46-3.496-1.298-6.543-2.493-8.201 2.751 0.882 5.078 3.471 6.482 6.984-1.246 0.525-2.585 0.936-3.989 1.217zM19.611 9.714c-1.178 0.184-2.387 0.286-3.611 0.286s-2.433-0.102-3.611-0.286c0.695-5.335 2.211-8.714 3.611-8.714s2.916 3.379 3.611 8.714zM11.415 9.537c-1.404-0.282-2.743-0.692-3.99-1.217 1.404-3.513 3.731-6.102 6.482-6.984-1.193 1.659-2.032 4.705-2.492 8.201zM11.294 10.53c-0.192 1.774-0.294 3.634-0.294 5.47h-5c0-2.426 0.395-4.712 1.079-6.742 1.319 0.552 2.735 0.979 4.215 1.272zM11.014 17c0.029 1.508 0.122 3.017 0.28 4.471-1.48 0.292-2.896 0.72-4.215 1.271-0.589-1.748-0.954-3.687-1.045-5.742h4.98zM6.17 23.139c-0.88 0.422-1.697 0.907-2.456 1.44-1.525-2.176-2.477-4.772-2.663-7.579h3.984c0.094 2.196 0.491 4.27 1.135 6.139zM4.313 25.38c0.685-0.479 1.417-0.922 2.207-1.305 1.004 2.485 2.449 4.548 4.186 5.943-2.526-0.958-4.729-2.568-6.393-4.638zM21.294 30.017c1.738-1.394 3.182-3.458 4.186-5.943 0.79 0.384 1.522 0.826 2.207 1.305-1.664 2.071-3.867 3.681-6.393 4.638zM27 16c0-2.567-0.428-4.987-1.17-7.139 0.88-0.422 1.698-0.907 2.457-1.44 1.704 2.434 2.713 5.389 2.713 8.579h-4zM27.688 6.62c-0.685 0.479-1.417 0.921-2.207 1.305-1.004-2.485-2.449-4.549-4.186-5.943 2.525 0.958 4.728 2.568 6.393 4.638zM10.706 1.983c-1.738 1.394-3.182 3.458-4.186 5.943-0.791-0.384-1.522-0.827-2.207-1.306 1.664-2.070 3.867-3.68 6.393-4.637zM3.714 7.421c0.758 0.533 1.576 1.018 2.456 1.44-0.742 2.152-1.17 4.572-1.17 7.139h-4c0-3.19 1.009-6.145 2.714-8.579z"></path>
</symbol>
<symbol id="lnr-chevron-left" viewBox="0 0 1024 1024">
<title>chevron-left</title>
<path class="path1" d="M716.8 1024c6.552 0 13.102-2.499 18.101-7.499 9.998-9.997 9.998-26.206 0-36.203l-442.698-442.698 442.698-442.699c9.998-9.997 9.998-26.206 0-36.203s-26.206-9.998-36.203 0l-460.8 460.8c-9.998 9.997-9.998 26.206 0 36.203l460.8 460.8c5 5 11.55 7.499 18.102 7.499z"></path>
</symbol>
<symbol id="lnr-chevron-right" viewBox="0 0 1024 1024">
<title>chevron-right</title>
<path class="path1" d="M256 1024c-6.552 0-13.102-2.499-18.101-7.499-9.998-9.997-9.998-26.206 0-36.203l442.698-442.698-442.698-442.699c-9.998-9.997-9.998-26.206 0-36.203s26.206-9.998 36.203 0l460.8 460.8c9.998 9.997 9.998 26.206 0 36.203l-460.8 460.8c-5 5-11.55 7.499-18.102 7.499z"></path>
</symbol>
<symbol id="lnr-cross-circle" viewBox="0 0 1024 1024">
<title>cross-circle</title>
<path class="path1" d="M733.808 723.266l-208.874-185.666 208.874-185.667c10.566-9.394 11.518-25.574 2.126-36.141-9.394-10.566-25.574-11.522-36.142-2.126l-213.392 189.682-213.392-189.68c-10.568-9.392-26.749-8.44-36.141 2.126-9.394 10.566-8.442 26.749 2.126 36.141l208.874 185.666-208.875 185.666c-10.566 9.394-11.518 25.574-2.126 36.142 5.059 5.691 12.085 8.592 19.142 8.592 6.048 0 12.122-2.131 16.998-6.466l213.394-189.683 213.392 189.683c4.878 4.334 10.949 6.466 16.998 6.466 7.058 0 14.086-2.902 19.144-8.592 9.392-10.568 8.44-26.749-2.126-36.142z"></path>
<path class="path2" d="M486.4 1024c-129.922 0-252.067-50.594-343.936-142.464s-142.464-214.014-142.464-343.936c0-129.923 50.595-252.067 142.464-343.936s214.013-142.464 343.936-142.464c129.922 0 252.067 50.595 343.936 142.464s142.464 214.014 142.464 343.936-50.594 252.067-142.464 343.936c-91.869 91.87-214.014 142.464-343.936 142.464zM486.4 102.4c-239.97 0-435.2 195.23-435.2 435.2s195.23 435.2 435.2 435.2 435.2-195.23 435.2-435.2-195.23-435.2-435.2-435.2z"></path>
</symbol>
<symbol id="lnr-menu" viewBox="0 0 1024 1024">
<title>menu</title>
<path class="path1" d="M896 307.2h-768c-14.138 0-25.6-11.462-25.6-25.6s11.462-25.6 25.6-25.6h768c14.139 0 25.6 11.462 25.6 25.6s-11.461 25.6-25.6 25.6z"></path><path class="path2" d="M896 563.2h-768c-14.138 0-25.6-11.461-25.6-25.6s11.462-25.6 25.6-25.6h768c14.139 0 25.6 11.461 25.6 25.6s-11.461 25.6-25.6 25.6z"></path><path class="path3" d="M896 819.2h-768c-14.138 0-25.6-11.461-25.6-25.6s11.462-25.6 25.6-25.6h768c14.139 0 25.6 11.461 25.6 25.6s-11.461 25.6-25.6 25.6z"></path>
</symbol>
<symbol id="lnr-cross" viewBox="0 0 1024 1024">
<title>cross</title>
<path class="path1" d="M548.203 537.6l289.099-289.098c9.998-9.998 9.998-26.206 0-36.205-9.997-9.997-26.206-9.997-36.203 0l-289.099 289.099-289.098-289.099c-9.998-9.997-26.206-9.997-36.205 0-9.997 9.998-9.997 26.206 0 36.205l289.099 289.098-289.099 289.099c-9.997 9.997-9.997 26.206 0 36.203 5 4.998 11.55 7.498 18.102 7.498s13.102-2.499 18.102-7.499l289.098-289.098 289.099 289.099c4.998 4.998 11.549 7.498 18.101 7.498s13.102-2.499 18.101-7.499c9.998-9.997 9.998-26.206 0-36.203l-289.098-289.098z"></path>
</symbol>
<symbol id="lnr-chevron-up-circle" viewBox="0 0 1024 1024">
<title>chevron-up-circle</title>
<path class="path1" d="M142.464 193.662c-91.869 91.869-142.464 214.016-142.464 343.938s50.595 252.067 142.464 343.936 214.014 142.464 343.936 142.464 252.069-50.595 343.938-142.464 142.462-214.014 142.462-343.936-50.594-252.069-142.462-343.938-214.016-142.462-343.938-142.462-252.067 50.594-343.936 142.462zM921.6 537.6c0 239.97-195.23 435.2-435.2 435.2s-435.2-195.23-435.2-435.2c0-239.97 195.23-435.2 435.2-435.2s435.2 195.23 435.2 435.2z"></path><path class="path2" d="M768 614.4c0 6.552-2.499 13.102-7.499 18.102-9.997 9.997-26.206 9.997-36.203 0l-237.898-237.898-237.898 237.898c-9.998 9.997-26.206 9.997-36.205 0-9.997-9.998-9.997-26.206 0-36.205l256-256c9.997-9.998 26.206-9.998 36.203 0l256 256c5 5 7.499 11.55 7.499 18.102z"></path>
</symbol>
<symbol id="icon-apartment" viewBox="0 0 20 20">
<title>apartment</title>
<path d="M14 6h1v1h-1v-1z"></path>
<path d="M14 8h1v1h-1v-1z"></path>
<path d="M14 10h1v1h-1v-1z"></path>
<path d="M14 12h1v1h-1v-1z"></path>
<path d="M14 16h1v1h-1v-1z"></path>
<path d="M14 14h1v1h-1v-1z"></path>
<path d="M6 6h1v1h-1v-1z"></path>
<path d="M6 8h1v1h-1v-1z"></path>
<path d="M6 10h1v1h-1v-1z"></path>
<path d="M6 12h1v1h-1v-1z"></path>
<path d="M6 16h1v1h-1v-1z"></path>
<path d="M6 14h1v1h-1v-1z"></path>
<path d="M4 6h1v1h-1v-1z"></path>
<path d="M4 8h1v1h-1v-1z"></path>
<path d="M4 10h1v1h-1v-1z"></path>
<path d="M4 12h1v1h-1v-1z"></path>
<path d="M4 16h1v1h-1v-1z"></path>
<path d="M4 14h1v1h-1v-1z"></path>
<path d="M8 6h1v1h-1v-1z"></path>
<path d="M8 8h1v1h-1v-1z"></path>
<path d="M8 10h1v1h-1v-1z"></path>
<path d="M8 12h1v1h-1v-1z"></path>
<path d="M8 16h1v1h-1v-1z"></path>
<path d="M8 14h1v1h-1v-1z"></path>
<path d="M18.5 19h-0.5v-13.5c0-0.763-0.567-1.549-1.291-1.791l-4.709-1.57v-1.64c0-0.158-0.075-0.307-0.202-0.401s-0.291-0.123-0.442-0.078l-9.042 2.713c-0.737 0.221-1.314 0.997-1.314 1.766v14.5h-0.5c-0.276 0-0.5 0.224-0.5 0.5s0.224 0.5 0.5 0.5h18c0.276 0 0.5-0.224 0.5-0.5s-0.224-0.5-0.5-0.5zM16.393 4.658c0.318 0.106 0.607 0.507 0.607 0.842v13.5h-5v-15.806l4.393 1.464zM2 4.5c0-0.329 0.287-0.714 0.602-0.808l8.398-2.52v17.828h-9v-14.5z"></path>
</symbol>
<symbol id="icon-diamond" viewBox="0 0 20 20">
<title>diamond</title>
<path d="M18.9 7.2l-3-4c-0.077-0.103-0.191-0.172-0.318-0.193l-6-1c-0.054-0.009-0.11-0.009-0.164 0l-6 1c-0.127 0.021-0.241 0.090-0.318 0.193l-3 4c-0.143 0.191-0.131 0.457 0.028 0.634l9 10c0.095 0.105 0.23 0.166 0.372 0.166s0.277-0.060 0.372-0.166l9-10c0.16-0.178 0.172-0.443 0.028-0.634zM12.786 7l-3.286 9.037-3.286-9.037h6.572zM6.707 6l2.793-2.793 2.793 2.793h-5.586zM10.957 3.25l3.698 0.616-1.233 1.849-2.466-2.465zM5.578 5.715l-1.233-1.849 3.698-0.616-2.465 2.465zM4.67 6.156l-2.985 0.597 1.791-2.388 1.194 1.791zM5.177 7.075l2.974 8.179-6.692-7.436 3.718-0.744zM13.823 7.075l3.718 0.744-6.692 7.436 2.974-8.179zM14.33 6.156l1.194-1.791 1.791 2.388-2.985-0.597z"></path>
</symbol>
<symbol id="icon-thumbs-up" viewBox="0 0 20 20">
<title>thumbs-up</title>
<path d="M18.916 11.208c0.443-0.511 0.695-1.355 0.695-2.159 0-0.531-0.115-0.996-0.333-1.345-0.284-0.454-0.738-0.704-1.278-0.704h-2.618c1.425-2.591 1.785-4.543 1.070-5.807-0.499-0.881-1.413-1.193-2.045-1.193-0.25 0-0.462 0.185-0.495 0.433-0.179 1.319-1.188 2.893-2.768 4.318-1.514 1.365-3.374 2.456-5.286 3.11-0.241-0.508-0.758-0.86-1.356-0.86h-3c-0.827 0-1.5 0.673-1.5 1.5v9c0 0.827 0.673 1.5 1.5 1.5h3c0.634 0 1.176-0.395 1.396-0.952 1.961 0.246 2.699 0.64 3.414 1.022 0.895 0.478 1.739 0.93 4.503 0.93 0.72 0 1.398-0.188 1.91-0.529 0.5-0.333 0.82-0.801 0.926-1.343 0.399-0.162 0.753-0.536 1.024-1.092 0.264-0.541 0.435-1.232 0.435-1.761 0-0.099-0.006-0.19-0.017-0.274 0.253-0.186 0.48-0.473 0.667-0.851 0.27-0.545 0.432-1.228 0.432-1.826 0-0.424-0.079-0.777-0.234-1.051-0.013-0.022-0.026-0.044-0.039-0.065zM4.5 18h-3c-0.276 0-0.5-0.224-0.5-0.5v-9c0-0.276 0.224-0.5 0.5-0.5h3c0.276 0 0.5 0.224 0.5 0.5v8.999c0 0 0 0.001 0 0.001-0 0.276-0.224 0.5-0.5 0.5zM18.339 10.274c-0.151 0.304-0.304 0.414-0.37 0.414-0.276 0-0.5 0.224-0.5 0.5s0.224 0.5 0.5 0.5c0.042 0 0.072 0 0.117 0.078 0.066 0.117 0.104 0.32 0.104 0.558 0 0.445-0.126 0.974-0.328 1.382-0.198 0.399-0.399 0.544-0.487 0.544-0.276 0-0.5 0.224-0.5 0.5 0 0.177 0.092 0.333 0.231 0.422 0.031 0.317-0.117 1.165-0.501 1.718-0.145 0.209-0.298 0.329-0.418 0.329-0.276 0-0.5 0.224-0.5 0.5 0 0.88-0.972 1.281-1.875 1.281-2.513 0-3.217-0.376-4.032-0.812-0.762-0.407-1.618-0.865-3.781-1.134v-8.187c2.101-0.689 4.152-1.877 5.812-3.373 1.593-1.436 2.639-2.988 2.994-4.426 0.272 0.087 0.579 0.271 0.776 0.618 0.334 0.59 0.584 2.096-1.493 5.557-0.093 0.154-0.095 0.347-0.006 0.504s0.255 0.254 0.435 0.254h3.483c0.199 0 0.327 0.070 0.43 0.234 0.117 0.187 0.181 0.477 0.181 0.815 0 0.424-0.102 0.882-0.272 1.225z"></path>
</symbol>
<symbol id="icon-users" viewBox="0 0 20 20">
<title>users</title>
<path d="M18.5 18h-11c-0.827 0-1.5-0.673-1.5-1.5 0-0.048 0.011-1.19 0.924-2.315 0.525-0.646 1.241-1.158 2.128-1.522 1.071-0.44 2.4-0.662 3.948-0.662s2.876 0.223 3.948 0.662c0.887 0.364 1.603 0.876 2.128 1.522 0.914 1.125 0.924 2.267 0.924 2.315 0 0.827-0.673 1.5-1.5 1.5zM7 16.503c0.001 0.275 0.225 0.497 0.5 0.497h11c0.275 0 0.499-0.223 0.5-0.497-0.001-0.035-0.032-0.895-0.739-1.734-0.974-1.157-2.793-1.768-5.261-1.768s-4.287 0.612-5.261 1.768c-0.707 0.84-0.738 1.699-0.739 1.734z"></path>
<path d="M13 11c-2.206 0-4-1.794-4-4s1.794-4 4-4 4 1.794 4 4c0 2.206-1.794 4-4 4zM13 4c-1.654 0-3 1.346-3 3s1.346 3 3 3 3-1.346 3-3-1.346-3-3-3z"></path>
<path d="M4.5 18h-3c-0.827 0-1.5-0.673-1.5-1.5 0-0.037 0.008-0.927 0.663-1.8 0.378-0.505 0.894-0.904 1.533-1.188 0.764-0.34 1.708-0.512 2.805-0.512 0.179 0 0.356 0.005 0.527 0.014 0.276 0.015 0.487 0.25 0.473 0.526s-0.25 0.488-0.526 0.473c-0.153-0.008-0.312-0.012-0.473-0.012-3.894 0-3.997 2.379-4 2.503 0.001 0.274 0.225 0.497 0.5 0.497h3c0.276 0 0.5 0.224 0.5 0.5s-0.224 0.5-0.5 0.5z"></path>
<path d="M5 12c-1.654 0-3-1.346-3-3s1.346-3 3-3 3 1.346 3 3-1.346 3-3 3zM5 7c-1.103 0-2 0.897-2 2s0.897 2 2 2 2-0.897 2-2c0-1.103-0.897-2-2-2z"></path>
</symbol>
<symbol id="icon-license" viewBox="0 0 20 20">
<title>license</title>
<path d="M18.5 18h-17c-0.827 0-1.5-0.673-1.5-1.5v-13c0-0.827 0.673-1.5 1.5-1.5h17c0.827 0 1.5 0.673 1.5 1.5v13c0 0.827-0.673 1.5-1.5 1.5zM1.5 3c-0.276 0-0.5 0.224-0.5 0.5v13c0 0.276 0.224 0.5 0.5 0.5h17c0.276 0 0.5-0.224 0.5-0.5v-13c0-0.276-0.224-0.5-0.5-0.5h-17z"></path>
<path d="M9.5 6h-6c-0.276 0-0.5-0.224-0.5-0.5s0.224-0.5 0.5-0.5h6c0.276 0 0.5 0.224 0.5 0.5s-0.224 0.5-0.5 0.5z"></path>
<path d="M9.5 9h-6c-0.276 0-0.5-0.224-0.5-0.5s0.224-0.5 0.5-0.5h6c0.276 0 0.5 0.224 0.5 0.5s-0.224 0.5-0.5 0.5z"></path>
<path d="M9.5 11h-6c-0.276 0-0.5-0.224-0.5-0.5s0.224-0.5 0.5-0.5h6c0.276 0 0.5 0.224 0.5 0.5s-0.224 0.5-0.5 0.5z"></path>
<path d="M9.5 13h-6c-0.276 0-0.5-0.224-0.5-0.5s0.224-0.5 0.5-0.5h6c0.276 0 0.5 0.224 0.5 0.5s-0.224 0.5-0.5 0.5z"></path>
<path d="M8.5 15h-5c-0.276 0-0.5-0.224-0.5-0.5s0.224-0.5 0.5-0.5h5c0.276 0 0.5 0.224 0.5 0.5s-0.224 0.5-0.5 0.5z"></path>
<path d="M17.943 6.544l-0.813-0.591-0.311-0.956h-1.005l-0.813-0.591-0.813 0.591h-1.005l-0.311 0.956-0.813 0.591 0.311 0.956-0.311 0.956 0.813 0.591 0.132 0.406c-0.002 0.016-0.002 0.031-0.002 0.047v5c0 0.202 0.122 0.385 0.309 0.462s0.402 0.035 0.545-0.108l1.146-1.146 1.146 1.146c0.096 0.096 0.223 0.147 0.354 0.146 0.064 0 0.129-0.012 0.191-0.038 0.187-0.077 0.309-0.26 0.309-0.462v-5c0-0.016-0.001-0.032-0.002-0.047l0.132-0.406 0.813-0.591-0.311-0.956 0.311-0.956zM13.233 6.926l0.488-0.355 0.187-0.574h0.604l0.488-0.355 0.488 0.355h0.604l0.187 0.574 0.488 0.355-0.187 0.574 0.187 0.574-0.488 0.355-0.187 0.574h-0.604l-0.488 0.355-0.488-0.355h-0.604l-0.187-0.574-0.488-0.355 0.187-0.574-0.187-0.574zM15.354 12.646c-0.195-0.195-0.512-0.195-0.707 0l-0.646 0.646v-3.29h0.187l0.813 0.591 0.813-0.591h0.187v3.29l-0.646-0.646z"></path>
</symbol>
<symbol id="icon-heart" viewBox="0 0 20 20">
<title>heart</title>
<path d="M9.5 19c-0.084 0-0.167-0.021-0.243-0.063-0.094-0.052-2.326-1.301-4.592-3.347-1.341-1.21-2.411-2.448-3.183-3.68-0.984-1.571-1.482-3.139-1.482-4.66 0-2.895 2.355-5.25 5.25-5.25 0.98 0 2.021 0.367 2.931 1.034 0.532 0.39 0.985 0.86 1.319 1.359 0.334-0.499 0.787-0.969 1.319-1.359 0.91-0.667 1.951-1.034 2.931-1.034 2.895 0 5.25 2.355 5.25 5.25 0 1.521-0.499 3.089-1.482 4.66-0.771 1.232-1.842 2.47-3.182 3.68-2.266 2.046-4.498 3.295-4.592 3.347-0.076 0.042-0.159 0.063-0.243 0.063zM5.25 3c-2.343 0-4.25 1.907-4.25 4.25 0 3.040 2.35 5.802 4.321 7.585 1.76 1.592 3.544 2.708 4.179 3.087 0.635-0.379 2.419-1.495 4.179-3.087 1.971-1.782 4.321-4.545 4.321-7.585 0-2.343-1.907-4.25-4.25-4.25-1.703 0-3.357 1.401-3.776 2.658-0.068 0.204-0.259 0.342-0.474 0.342s-0.406-0.138-0.474-0.342c-0.419-1.257-2.073-2.658-3.776-2.658z"></path>
</symbol>
<symbol id="lnr-link" viewBox="0 0 24 24">
<title>link</title>
<path d="M10 13a5 5 0 0 0 7.54.54l3-3a5 5 0 0 0-7.07-7.07l-1.72 1.71"></path>
<path d="M14 11a5 5 0 0 0-7.54-.54l-3 3a5 5 0 0 0 7.07 7.07l1.71-1.71"></path>
</symbol>
</defs>
</svg>
